<mxfile host="Electron" agent="Mozilla/5.0 (Macintosh; Intel Mac OS X 10_15_7) AppleWebKit/537.36 (KHTML, like Gecko) draw.io/28.0.6 Chrome/138.0.7204.100 Electron/37.2.3 Safari/537.36" version="28.0.6">
  <diagram name="Page-1" id="eP6hRjAX637331Wop-WE">
    <mxGraphModel dx="291" dy="209" grid="1" gridSize="10" guides="1" tooltips="1" connect="1" arrows="1" fold="1" page="1" pageScale="1" pageWidth="850" pageHeight="1100" math="0" shadow="0">
      <root>
        <mxCell id="0" />
        <mxCell id="1" parent="0" />
        <mxCell id="Z71YufAj8U2j7IE6HSsG-6" value="" style="edgeStyle=segmentEdgeStyle;endArrow=none;html=1;curved=0;rounded=0;endSize=8;startSize=8;hachureGap=4;fontFamily=Times New Roman;jumpStyle=none;entryX=0;entryY=0.5;entryDx=0;entryDy=0;startArrow=classic;startFill=1;endFill=0;fontSize=23;sketch=1;curveFitting=1;jiggle=2;" parent="1" target="Z71YufAj8U2j7IE6HSsG-2" edge="1">
          <mxGeometry width="50" height="50" relative="1" as="geometry">
            <mxPoint x="94" y="410" as="sourcePoint" />
            <mxPoint x="170" y="429.88" as="targetPoint" />
            <Array as="points">
              <mxPoint x="94" y="420" />
              <mxPoint x="94" y="420" />
              <mxPoint x="94" y="430" />
            </Array>
          </mxGeometry>
        </mxCell>
        <mxCell id="Z71YufAj8U2j7IE6HSsG-11" value="" style="edgeStyle=orthogonalEdgeStyle;rounded=0;hachureGap=4;orthogonalLoop=1;jettySize=auto;html=1;fontFamily=Times New Roman;entryX=-0.019;entryY=0.492;entryDx=0;entryDy=0;entryPerimeter=0;startArrow=classic;startFill=1;endArrow=none;endFill=0;fontSize=23;sketch=1;curveFitting=1;jiggle=2;" parent="1" source="Z71YufAj8U2j7IE6HSsG-2" target="Z71YufAj8U2j7IE6HSsG-3" edge="1">
          <mxGeometry relative="1" as="geometry">
            <mxPoint x="340" y="430" as="targetPoint" />
          </mxGeometry>
        </mxCell>
        <mxCell id="Z71YufAj8U2j7IE6HSsG-2" value="Snapshot1" style="rounded=1;whiteSpace=wrap;html=1;hachureGap=4;fontFamily=Times New Roman;fillColor=#ffff88;strokeColor=#36393d;fontSize=23;sketch=1;curveFitting=1;jiggle=2;" parent="1" vertex="1">
          <mxGeometry x="180" y="400" width="130" height="60" as="geometry" />
        </mxCell>
        <mxCell id="Z71YufAj8U2j7IE6HSsG-3" value="Clone1(Volume1)" style="rounded=1;whiteSpace=wrap;html=1;hachureGap=4;fontFamily=Times New Roman;fillColor=#ffcc99;strokeColor=#36393d;fontSize=23;sketch=1;curveFitting=1;jiggle=2;" parent="1" vertex="1">
          <mxGeometry x="410" y="400" width="185" height="60" as="geometry" />
        </mxCell>
        <mxCell id="Z71YufAj8U2j7IE6HSsG-47" value="" style="edgeStyle=orthogonalEdgeStyle;rounded=0;hachureGap=4;orthogonalLoop=1;jettySize=auto;html=1;fontFamily=Times New Roman;fontSize=23;fontColor=default;startArrow=classic;startFill=1;endArrow=none;endFill=0;sketch=1;curveFitting=1;jiggle=2;" parent="1" edge="1">
          <mxGeometry relative="1" as="geometry">
            <mxPoint x="550" y="229.85" as="targetPoint" />
            <Array as="points">
              <mxPoint x="540" y="229.85" />
              <mxPoint x="540" y="229.85" />
            </Array>
            <mxPoint x="510" y="229.8653846153846" as="sourcePoint" />
          </mxGeometry>
        </mxCell>
        <mxCell id="Z71YufAj8U2j7IE6HSsG-4" value="Clone2(Volume2)" style="rounded=1;whiteSpace=wrap;html=1;hachureGap=4;fontFamily=Times New Roman;fillColor=#ffe6cc;strokeColor=#d79b00;fontSize=23;sketch=1;curveFitting=1;jiggle=2;" parent="1" vertex="1">
          <mxGeometry x="330" y="200" width="170" height="60" as="geometry" />
        </mxCell>
        <mxCell id="Z71YufAj8U2j7IE6HSsG-8" value="" style="edgeStyle=orthogonalEdgeStyle;rounded=0;hachureGap=4;orthogonalLoop=1;jettySize=auto;html=1;fontFamily=Times New Roman;dashed=1;dashPattern=1 4;startArrow=classic;startFill=1;endArrow=none;endFill=0;fontSize=23;sketch=1;curveFitting=1;jiggle=2;" parent="1" source="Z71YufAj8U2j7IE6HSsG-5" target="Z71YufAj8U2j7IE6HSsG-4" edge="1">
          <mxGeometry relative="1" as="geometry" />
        </mxCell>
        <mxCell id="Z71YufAj8U2j7IE6HSsG-5" value="Snapshot_temp" style="rounded=1;whiteSpace=wrap;html=1;hachureGap=4;fontFamily=Times New Roman;fillColor=#d5e8d4;strokeColor=#82b366;fontSize=23;sketch=1;curveFitting=1;jiggle=2;" parent="1" vertex="1">
          <mxGeometry x="140" y="200" width="150" height="60" as="geometry" />
        </mxCell>
        <mxCell id="Z71YufAj8U2j7IE6HSsG-7" value="" style="edgeStyle=segmentEdgeStyle;endArrow=none;html=1;curved=0;rounded=0;endSize=8;startSize=8;hachureGap=4;fontFamily=Times New Roman;jumpStyle=none;dashed=1;dashPattern=1 4;exitX=0.5;exitY=0;exitDx=0;exitDy=0;endFill=0;startArrow=classic;startFill=1;fontSize=23;sketch=1;curveFitting=1;jiggle=2;" parent="1" edge="1">
          <mxGeometry width="50" height="50" relative="1" as="geometry">
            <mxPoint x="90.00000000000011" y="270" as="sourcePoint" />
            <mxPoint x="130" y="226" as="targetPoint" />
            <Array as="points">
              <mxPoint x="90" y="226" />
            </Array>
          </mxGeometry>
        </mxCell>
        <mxCell id="Z71YufAj8U2j7IE6HSsG-33" value="Volume0" style="shape=table;startSize=30;container=1;collapsible=0;childLayout=tableLayout;strokeColor=#6c8ebf;fontSize=23;rounded=1;hachureGap=4;align=center;verticalAlign=middle;fontFamily=Times New Roman;fillColor=#dae8fc;columnLines=0;gradientColor=none;swimlaneFillColor=default;sketch=1;curveFitting=1;jiggle=2;" parent="1" vertex="1">
          <mxGeometry x="40" y="284" width="100" height="126" as="geometry" />
        </mxCell>
        <mxCell id="Z71YufAj8U2j7IE6HSsG-34" value="" style="shape=tableRow;horizontal=0;startSize=0;swimlaneHead=0;swimlaneBody=0;strokeColor=inherit;top=0;left=0;bottom=0;right=0;collapsible=0;dropTarget=0;fillColor=none;points=[[0,0.5],[1,0.5]];portConstraint=eastwest;fontSize=23;rounded=1;hachureGap=4;align=center;verticalAlign=middle;fontFamily=Times New Roman;fontColor=default;sketch=1;curveFitting=1;jiggle=2;" parent="Z71YufAj8U2j7IE6HSsG-33" vertex="1">
          <mxGeometry y="30" width="100" height="33" as="geometry" />
        </mxCell>
        <mxCell id="Z71YufAj8U2j7IE6HSsG-35" value="Block2: C" style="shape=partialRectangle;html=1;whiteSpace=wrap;connectable=0;strokeColor=#36393d;overflow=hidden;fillColor=#cce5ff;top=0;left=0;bottom=0;right=0;pointerEvents=1;fontSize=23;rounded=1;hachureGap=4;align=center;verticalAlign=middle;fontFamily=Times New Roman;sketch=1;curveFitting=1;jiggle=2;" parent="Z71YufAj8U2j7IE6HSsG-34" vertex="1">
          <mxGeometry width="100" height="33" as="geometry">
            <mxRectangle width="100" height="33" as="alternateBounds" />
          </mxGeometry>
        </mxCell>
        <mxCell id="Z71YufAj8U2j7IE6HSsG-38" value="" style="shape=tableRow;horizontal=0;startSize=0;swimlaneHead=0;swimlaneBody=0;strokeColor=inherit;top=0;left=0;bottom=0;right=0;collapsible=0;dropTarget=0;fillColor=none;points=[[0,0.5],[1,0.5]];portConstraint=eastwest;fontSize=23;rounded=1;hachureGap=4;align=center;verticalAlign=middle;fontFamily=Times New Roman;fontColor=default;sketch=1;curveFitting=1;jiggle=2;" parent="Z71YufAj8U2j7IE6HSsG-33" vertex="1">
          <mxGeometry y="63" width="100" height="32" as="geometry" />
        </mxCell>
        <mxCell id="Z71YufAj8U2j7IE6HSsG-39" value="Block1: B" style="shape=partialRectangle;html=1;whiteSpace=wrap;connectable=0;strokeColor=#36393d;overflow=hidden;fillColor=#cce5ff;top=0;left=0;bottom=0;right=0;pointerEvents=1;fontSize=23;rounded=1;hachureGap=4;align=center;verticalAlign=middle;fontFamily=Times New Roman;sketch=1;curveFitting=1;jiggle=2;" parent="Z71YufAj8U2j7IE6HSsG-38" vertex="1">
          <mxGeometry width="100" height="32" as="geometry">
            <mxRectangle width="100" height="32" as="alternateBounds" />
          </mxGeometry>
        </mxCell>
        <mxCell id="Z71YufAj8U2j7IE6HSsG-42" value="" style="shape=tableRow;horizontal=0;startSize=0;swimlaneHead=0;swimlaneBody=0;strokeColor=inherit;top=0;left=0;bottom=0;right=0;collapsible=0;dropTarget=0;fillColor=none;points=[[0,0.5],[1,0.5]];portConstraint=eastwest;fontSize=23;rounded=1;hachureGap=4;align=center;verticalAlign=middle;fontFamily=Times New Roman;fontColor=default;sketch=1;curveFitting=1;jiggle=2;" parent="Z71YufAj8U2j7IE6HSsG-33" vertex="1">
          <mxGeometry y="95" width="100" height="31" as="geometry" />
        </mxCell>
        <mxCell id="Z71YufAj8U2j7IE6HSsG-43" value="Block0: A" style="shape=partialRectangle;html=1;whiteSpace=wrap;connectable=0;strokeColor=#36393d;overflow=hidden;fillColor=#cce5ff;top=0;left=0;bottom=0;right=0;pointerEvents=1;fontSize=23;rounded=1;hachureGap=4;align=center;verticalAlign=middle;fontFamily=Times New Roman;sketch=1;curveFitting=1;jiggle=2;" parent="Z71YufAj8U2j7IE6HSsG-42" vertex="1">
          <mxGeometry width="100" height="31" as="geometry">
            <mxRectangle width="100" height="31" as="alternateBounds" />
          </mxGeometry>
        </mxCell>
        <mxCell id="Z71YufAj8U2j7IE6HSsG-48" value="Clone3(Volume3)" style="shape=table;startSize=30;container=1;collapsible=0;childLayout=tableLayout;strokeColor=#b85450;fontSize=23;rounded=1;hachureGap=4;align=center;verticalAlign=middle;fontFamily=Times New Roman;fillColor=#f8cecc;columnLines=0;sketch=1;curveFitting=1;jiggle=2;" parent="1" vertex="1">
          <mxGeometry x="560" y="200" width="160" height="60" as="geometry" />
        </mxCell>
        <mxCell id="Z71YufAj8U2j7IE6HSsG-49" value="" style="shape=tableRow;horizontal=0;startSize=0;swimlaneHead=0;swimlaneBody=0;strokeColor=inherit;top=0;left=0;bottom=0;right=0;collapsible=0;dropTarget=0;fillColor=none;points=[[0,0.5],[1,0.5]];portConstraint=eastwest;fontSize=23;rounded=1;hachureGap=4;align=center;verticalAlign=middle;fontFamily=Times New Roman;fontColor=default;sketch=1;curveFitting=1;jiggle=2;" parent="Z71YufAj8U2j7IE6HSsG-48" vertex="1">
          <mxGeometry y="30" width="160" height="30" as="geometry" />
        </mxCell>
        <mxCell id="Z71YufAj8U2j7IE6HSsG-50" value="Block2: D" style="shape=partialRectangle;html=1;whiteSpace=wrap;connectable=0;strokeColor=#b85450;overflow=hidden;fillColor=#f8cecc;top=0;left=0;bottom=0;right=0;pointerEvents=1;fontSize=23;rounded=1;hachureGap=4;align=center;verticalAlign=middle;fontFamily=Times New Roman;sketch=1;curveFitting=1;jiggle=2;" parent="Z71YufAj8U2j7IE6HSsG-49" vertex="1">
          <mxGeometry width="160" height="30" as="geometry">
            <mxRectangle width="160" height="30" as="alternateBounds" />
          </mxGeometry>
        </mxCell>
        <mxCell id="Z71YufAj8U2j7IE6HSsG-69" value="&amp;nbsp;create_cloned_volume" style="text;html=1;align=center;verticalAlign=middle;resizable=0;points=[];autosize=1;strokeColor=none;fillColor=none;fontFamily=Times New Roman;fontSize=23;fontColor=#FF6666;sketch=1;curveFitting=1;jiggle=2;" parent="1" vertex="1">
          <mxGeometry x="170" y="270" width="240" height="40" as="geometry" />
        </mxCell>
        <mxCell id="Z71YufAj8U2j7IE6HSsG-71" value="create_volume_from_snapshot" style="text;html=1;align=center;verticalAlign=middle;resizable=0;points=[];autosize=1;fontFamily=Times New Roman;fontSize=23;fontColor=#FF9933;sketch=1;curveFitting=1;jiggle=2;" parent="1" vertex="1">
          <mxGeometry x="165" y="355" width="310" height="40" as="geometry" />
        </mxCell>
        <mxCell id="Z71YufAj8U2j7IE6HSsG-72" value="Clone4(Volume4)" style="shape=table;startSize=30;container=1;collapsible=0;childLayout=tableLayout;strokeColor=#006EAF;fontSize=23;rounded=1;hachureGap=4;align=center;verticalAlign=middle;fontFamily=Times New Roman;fillColor=#1ba1e2;columnLines=0;swimlaneFillColor=default;fontColor=#000000;sketch=1;curveFitting=1;jiggle=2;" parent="1" vertex="1">
          <mxGeometry x="740" y="165" width="170" height="119" as="geometry" />
        </mxCell>
        <mxCell id="Z71YufAj8U2j7IE6HSsG-73" value="" style="shape=tableRow;horizontal=0;startSize=0;swimlaneHead=0;swimlaneBody=0;strokeColor=inherit;top=0;left=0;bottom=0;right=0;collapsible=0;dropTarget=0;fillColor=none;points=[[0,0.5],[1,0.5]];portConstraint=eastwest;fontSize=23;rounded=1;hachureGap=4;align=center;verticalAlign=middle;fontFamily=Times New Roman;fontColor=default;sketch=1;curveFitting=1;jiggle=2;" parent="Z71YufAj8U2j7IE6HSsG-72" vertex="1">
          <mxGeometry y="30" width="170" height="33" as="geometry" />
        </mxCell>
        <mxCell id="Z71YufAj8U2j7IE6HSsG-74" value="Block2: D" style="shape=partialRectangle;html=1;whiteSpace=wrap;connectable=0;strokeColor=#006EAF;overflow=hidden;fillColor=#1ba1e2;top=0;left=0;bottom=0;right=0;pointerEvents=1;fontSize=23;rounded=1;hachureGap=4;align=center;verticalAlign=middle;fontFamily=Times New Roman;fontColor=#000000;sketch=1;curveFitting=1;jiggle=2;" parent="Z71YufAj8U2j7IE6HSsG-73" vertex="1">
          <mxGeometry width="170" height="33" as="geometry">
            <mxRectangle width="170" height="33" as="alternateBounds" />
          </mxGeometry>
        </mxCell>
        <mxCell id="Z71YufAj8U2j7IE6HSsG-75" value="" style="shape=tableRow;horizontal=0;startSize=0;swimlaneHead=0;swimlaneBody=0;strokeColor=inherit;top=0;left=0;bottom=0;right=0;collapsible=0;dropTarget=0;fillColor=none;points=[[0,0.5],[1,0.5]];portConstraint=eastwest;fontSize=23;rounded=1;hachureGap=4;align=center;verticalAlign=middle;fontFamily=Times New Roman;fontColor=default;sketch=1;curveFitting=1;jiggle=2;" parent="Z71YufAj8U2j7IE6HSsG-72" vertex="1">
          <mxGeometry y="63" width="170" height="28" as="geometry" />
        </mxCell>
        <mxCell id="Z71YufAj8U2j7IE6HSsG-76" value="Block1: B" style="shape=partialRectangle;html=1;whiteSpace=wrap;connectable=0;strokeColor=#006EAF;overflow=hidden;fillColor=#1ba1e2;top=0;left=0;bottom=0;right=0;pointerEvents=1;fontSize=23;rounded=1;hachureGap=4;align=center;verticalAlign=middle;fontFamily=Times New Roman;fontColor=#000000;sketch=1;curveFitting=1;jiggle=2;" parent="Z71YufAj8U2j7IE6HSsG-75" vertex="1">
          <mxGeometry width="170" height="28" as="geometry">
            <mxRectangle width="170" height="28" as="alternateBounds" />
          </mxGeometry>
        </mxCell>
        <mxCell id="Z71YufAj8U2j7IE6HSsG-77" value="" style="shape=tableRow;horizontal=0;startSize=0;swimlaneHead=0;swimlaneBody=0;strokeColor=inherit;top=0;left=0;bottom=0;right=0;collapsible=0;dropTarget=0;fillColor=none;points=[[0,0.5],[1,0.5]];portConstraint=eastwest;fontSize=23;rounded=1;hachureGap=4;align=center;verticalAlign=middle;fontFamily=Times New Roman;fontColor=default;sketch=1;curveFitting=1;jiggle=2;" parent="Z71YufAj8U2j7IE6HSsG-72" vertex="1">
          <mxGeometry y="91" width="170" height="28" as="geometry" />
        </mxCell>
        <mxCell id="Z71YufAj8U2j7IE6HSsG-78" value="Block0: A" style="shape=partialRectangle;html=1;whiteSpace=wrap;connectable=0;strokeColor=#006EAF;overflow=hidden;fillColor=#1ba1e2;top=0;left=0;bottom=0;right=0;pointerEvents=1;fontSize=23;rounded=1;hachureGap=4;align=center;verticalAlign=middle;fontFamily=Times New Roman;fontColor=#000000;sketch=1;curveFitting=1;jiggle=2;" parent="Z71YufAj8U2j7IE6HSsG-77" vertex="1">
          <mxGeometry width="170" height="28" as="geometry">
            <mxRectangle width="170" height="28" as="alternateBounds" />
          </mxGeometry>
        </mxCell>
        <mxCell id="Z71YufAj8U2j7IE6HSsG-79" value="" style="edgeStyle=segmentEdgeStyle;endArrow=none;html=1;curved=0;rounded=0;endSize=8;startSize=8;hachureGap=4;fontFamily=Times New Roman;startArrow=classic;startFill=1;endFill=0;fontSize=23;sketch=1;curveFitting=1;jiggle=2;" parent="1" edge="1">
          <mxGeometry width="50" height="50" relative="1" as="geometry">
            <mxPoint x="150" y="320" as="sourcePoint" />
            <mxPoint x="410" y="260" as="targetPoint" />
          </mxGeometry>
        </mxCell>
        <mxCell id="Z71YufAj8U2j7IE6HSsG-81" value="flatten" style="text;html=1;align=center;verticalAlign=middle;resizable=0;points=[];autosize=1;fontFamily=Times New Roman;fontSize=23;sketch=1;curveFitting=1;jiggle=2;labelBackgroundColor=none;fillColor=none;fontColor=#006EAF;" parent="1" vertex="1">
          <mxGeometry x="730" y="300" width="80" height="40" as="geometry" />
        </mxCell>
        <mxCell id="Z71YufAj8U2j7IE6HSsG-87" value="" style="edgeStyle=segmentEdgeStyle;endArrow=none;html=1;curved=1;rounded=0;hachureGap=4;fontFamily=Architects Daughter;fontSource=https%3A%2F%2Ffonts.googleapis.com%2Fcss%3Ffamily%3DArchitects%2BDaughter;startArrow=classic;startFill=1;endFill=0;dashPattern=1 2;flowAnimation=0;sourcePerimeterSpacing=0;strokeWidth=1;dashed=1;fillColor=#1ba1e2;strokeColor=#006EAF;sketch=1;curveFitting=1;jiggle=2;fontSize=23;" parent="1" edge="1">
          <mxGeometry width="50" height="50" relative="1" as="geometry">
            <mxPoint x="150" y="350" as="sourcePoint" />
            <mxPoint x="830" y="290" as="targetPoint" />
          </mxGeometry>
        </mxCell>
        <mxCell id="Z71YufAj8U2j7IE6HSsG-88" value="" style="endArrow=classic;html=1;rounded=0;hachureGap=4;fontFamily=Architects Daughter;fontSource=https%3A%2F%2Ffonts.googleapis.com%2Fcss%3Ffamily%3DArchitects%2BDaughter;entryX=0.75;entryY=1;entryDx=0;entryDy=0;dashPattern=1 2;curved=1;flowAnimation=0;sourcePerimeterSpacing=0;strokeWidth=1;dashed=1;fillColor=#1ba1e2;strokeColor=#006EAF;sketch=1;curveFitting=1;jiggle=2;fontSize=23;" parent="1" target="Z71YufAj8U2j7IE6HSsG-4" edge="1">
          <mxGeometry width="50" height="50" relative="1" as="geometry">
            <mxPoint x="458" y="350" as="sourcePoint" />
            <mxPoint x="520" y="280" as="targetPoint" />
          </mxGeometry>
        </mxCell>
        <mxCell id="Z71YufAj8U2j7IE6HSsG-89" value="" style="endArrow=classic;html=1;rounded=0;hachureGap=4;fontFamily=Architects Daughter;fontSource=https%3A%2F%2Ffonts.googleapis.com%2Fcss%3Ffamily%3DArchitects%2BDaughter;entryX=0.75;entryY=1;entryDx=0;entryDy=0;dashPattern=1 2;curved=1;flowAnimation=0;sourcePerimeterSpacing=0;strokeWidth=1;dashed=1;fillColor=#1ba1e2;strokeColor=#006EAF;sketch=1;curveFitting=1;jiggle=2;fontSize=23;" parent="1" edge="1">
          <mxGeometry width="50" height="50" relative="1" as="geometry">
            <mxPoint x="620" y="340" as="sourcePoint" />
            <mxPoint x="620" y="259" as="targetPoint" />
          </mxGeometry>
        </mxCell>
      </root>
    </mxGraphModel>
  </diagram>
</mxfile>
